<svg xmlns="http://www.w3.org/2000/svg" viewBox="0 0 29.6 29.6"><circle cx="9.50" cy="17.20" r="0.3" fill="#dd3e47" /><circle cx="10.40" cy="17.20" r="0.3" fill="#dd3e47" /><circle cx="11.30" cy="17.20" r="0.3" fill="#dd3e47" /><circle cx="12.20" cy="17.20" r="0.3" fill="#dd3e47" /><circle cx="9.50" cy="18.10" r="0.3" fill="#dd3e47" /><circle cx="10.40" cy="18.10" r="0.3" fill="#dd3e47" /><circle cx="11.30" cy="18.10" r="0.3" fill="#dd3e47" /><circle cx="12.20" cy="18.10" r="0.3" fill="#dd3e47" /><circle cx="9.50" cy="19.00" r="0.3" fill="#dd3e47" /><circle cx="10.40" cy="19.00" r="0.3" fill="#dd3e47" /><circle cx="11.30" cy="19.00" r="0.3" fill="#dd3e47" /><circle cx="12.20" cy="19.00" r="0.3" fill="#dd3e47" /><circle cx="9.50" cy="19.90" r="0.3" fill="#dd3e47" /><circle cx="10.40" cy="19.90" r="0.3" fill="#dd3e47" /><circle cx="11.30" cy="19.90" r="0.3" fill="#dd3e47" /><circle cx="12.20" cy="19.90" r="0.3" fill="#dd3e47" /><circle cx="9.50" cy="20.80" r="0.3" fill="#dd3e47" /><circle cx="10.40" cy="20.80" r="0.3" fill="#dd3e47" /><circle cx="11.30" cy="20.80" r="0.3" fill="#dd3e47" /><circle cx="12.20" cy="20.80" r="0.3" fill="#dd3e47" /><circle cx="13.60" cy="8.70" r="0.3" fill="#dd3e47" /><circle cx="14.50" cy="8.70" r="0.3" fill="#dd3e47" /><circle cx="15.40" cy="8.70" r="0.3" fill="#dd3e47" /><circle cx="16.30" cy="8.70" r="0.3" fill="#dd3e47" /><circle cx="13.60" cy="9.60" r="0.3" fill="#dd3e47" /><circle cx="14.50" cy="9.60" r="0.3" fill="#dd3e47" /><circle cx="15.40" cy="9.60" r="0.3" fill="#dd3e47" /><circle cx="16.30" cy="9.60" r="0.3" fill="#dd3e47" /><circle cx="13.60" cy="10.50" r="0.3" fill="#dd3e47" /><circle cx="14.50" cy="10.50" r="0.3" fill="#dd3e47" /><circle cx="15.40" cy="10.50" r="0.3" fill="#dd3e47" /><circle cx="16.30" cy="10.50" r="0.3" fill="#dd3e47" /><circle cx="13.60" cy="11.40" r="0.3" fill="#dd3e47" /><circle cx="14.50" cy="11.40" r="0.3" fill="#dd3e47" /><circle cx="15.40" cy="11.40" r="0.3" fill="#dd3e47" /><circle cx="16.30" cy="11.40" r="0.3" fill="#dd3e47" /><circle cx="13.60" cy="12.30" r="0.3" fill="#dd3e47" /><circle cx="14.50" cy="12.30" r="0.3" fill="#dd3e47" /><circle cx="15.40" cy="12.30" r="0.3" fill="#dd3e47" /><circle cx="16.30" cy="12.30" r="0.3" fill="#dd3e47" /><circle cx="13.60" cy="13.20" r="0.3" fill="#dd3e47" /><circle cx="14.50" cy="13.20" r="0.3" fill="#dd3e47" /><circle cx="15.40" cy="13.20" r="0.3" fill="#dd3e47" /><circle cx="16.30" cy="13.20" r="0.3" fill="#dd3e47" /><circle cx="13.60" cy="14.10" r="0.3" fill="#dd3e47" /><circle cx="14.50" cy="14.10" r="0.3" fill="#dd3e47" /><circle cx="15.40" cy="14.10" r="0.3" fill="#dd3e47" /><circle cx="16.30" cy="14.10" r="0.3" fill="#dd3e47" /><circle cx="13.60" cy="15.00" r="0.3" fill="#dd3e47" /><circle cx="14.50" cy="15.00" r="0.3" fill="#dd3e47" /><circle cx="15.40" cy="15.00" r="0.3" fill="#dd3e47" /><circle cx="16.30" cy="15.00" r="0.3" fill="#dd3e47" /><circle cx="13.60" cy="15.90" r="0.3" fill="#dd3e47" /><circle cx="14.50" cy="15.90" r="0.3" fill="#dd3e47" /><circle cx="15.40" cy="15.90" r="0.3" fill="#dd3e47" /><circle cx="16.30" cy="15.90" r="0.3" fill="#dd3e47" /><circle cx="13.60" cy="16.80" r="0.3" fill="#dd3e47" /><circle cx="14.50" cy="16.80" r="0.3" fill="#dd3e47" /><circle cx="15.40" cy="16.80" r="0.3" fill="#dd3e47" /><circle cx="16.30" cy="16.80" r="0.3" fill="#dd3e47" /><circle cx="13.60" cy="17.70" r="0.3" fill="#dd3e47" /><circle cx="14.50" cy="17.70" r="0.3" fill="#dd3e47" /><circle cx="15.40" cy="17.70" r="0.3" fill="#dd3e47" /><circle cx="16.30" cy="17.70" r="0.3" fill="#dd3e47" /><circle cx="13.60" cy="18.60" r="0.3" fill="#dd3e47" /><circle cx="14.50" cy="18.60" r="0.3" fill="#dd3e47" /><circle cx="15.40" cy="18.60" r="0.3" fill="#dd3e47" /><circle cx="16.30" cy="18.60" r="0.3" fill="#dd3e47" /><circle cx="13.60" cy="19.50" r="0.3" fill="#dd3e47" /><circle cx="14.50" cy="19.50" r="0.3" fill="#dd3e47" /><circle cx="15.40" cy="19.50" r="0.3" fill="#dd3e47" /><circle cx="16.30" cy="19.50" r="0.3" fill="#dd3e47" /><circle cx="13.60" cy="20.40" r="0.3" fill="#dd3e47" /><circle cx="14.50" cy="20.40" r="0.3" fill="#dd3e47" /><circle cx="15.40" cy="20.40" r="0.3" fill="#dd3e47" /><circle cx="16.30" cy="20.40" r="0.3" fill="#dd3e47" /><circle cx="17.70" cy="11.50" r="0.3" fill="#dd3e47" /><circle cx="18.60" cy="11.50" r="0.3" fill="#dd3e47" /><circle cx="19.50" cy="11.50" r="0.3" fill="#dd3e47" /><circle cx="20.40" cy="11.50" r="0.3" fill="#dd3e47" /><circle cx="17.70" cy="12.40" r="0.3" fill="#dd3e47" /><circle cx="18.60" cy="12.40" r="0.3" fill="#dd3e47" /><circle cx="19.50" cy="12.40" r="0.3" fill="#dd3e47" /><circle cx="20.40" cy="12.40" r="0.3" fill="#dd3e47" /><circle cx="17.70" cy="13.30" r="0.3" fill="#dd3e47" /><circle cx="18.60" cy="13.30" r="0.3" fill="#dd3e47" /><circle cx="19.50" cy="13.30" r="0.3" fill="#dd3e47" /><circle cx="20.40" cy="13.30" r="0.3" fill="#dd3e47" /><circle cx="17.70" cy="14.20" r="0.3" fill="#dd3e47" /><circle cx="18.60" cy="14.20" r="0.3" fill="#dd3e47" /><circle cx="19.50" cy="14.20" r="0.3" fill="#dd3e47" /><circle cx="20.40" cy="14.20" r="0.3" fill="#dd3e47" /><circle cx="17.70" cy="15.10" r="0.3" fill="#dd3e47" /><circle cx="18.60" cy="15.10" r="0.3" fill="#dd3e47" /><circle cx="19.50" cy="15.10" r="0.3" fill="#dd3e47" /><circle cx="20.40" cy="15.10" r="0.3" fill="#dd3e47" /><circle cx="17.70" cy="16.00" r="0.3" fill="#dd3e47" /><circle cx="18.60" cy="16.00" r="0.3" fill="#dd3e47" /><circle cx="19.50" cy="16.00" r="0.3" fill="#dd3e47" /><circle cx="20.40" cy="16.00" r="0.3" fill="#dd3e47" /><circle cx="17.70" cy="16.90" r="0.3" fill="#dd3e47" /><circle cx="18.60" cy="16.90" r="0.3" fill="#dd3e47" /><circle cx="19.50" cy="16.90" r="0.3" fill="#dd3e47" /><circle cx="20.40" cy="16.90" r="0.3" fill="#dd3e47" /><circle cx="17.70" cy="17.80" r="0.3" fill="#dd3e47" /><circle cx="18.60" cy="17.80" r="0.3" fill="#dd3e47" /><circle cx="19.50" cy="17.80" r="0.3" fill="#dd3e47" /><circle cx="20.40" cy="17.80" r="0.3" fill="#dd3e47" /><circle cx="17.70" cy="18.70" r="0.3" fill="#dd3e47" /><circle cx="18.60" cy="18.70" r="0.3" fill="#dd3e47" /><circle cx="19.50" cy="18.70" r="0.3" fill="#dd3e47" /><circle cx="20.40" cy="18.70" r="0.3" fill="#dd3e47" /><circle cx="17.70" cy="19.60" r="0.3" fill="#dd3e47" /><circle cx="18.60" cy="19.60" r="0.3" fill="#dd3e47" /><circle cx="19.50" cy="19.60" r="0.3" fill="#dd3e47" /><circle cx="20.40" cy="19.60" r="0.3" fill="#dd3e47" /><circle cx="17.70" cy="20.50" r="0.3" fill="#dd3e47" /><circle cx="18.60" cy="20.50" r="0.3" fill="#dd3e47" /><circle cx="19.50" cy="20.50" r="0.3" fill="#dd3e47" /><circle cx="20.40" cy="20.50" r="0.3" fill="#dd3e47" /><circle cx="14.8" cy="14.8" r="14.3" fill="none" stroke="#dd3e47" stroke-miterlimit="10" /></svg>