<?xml version="1.0" encoding="utf-8"?>
<!-- Generator: Adobe Illustrator 24.0.0, SVG Export Plug-In . SVG Version: 6.00 Build 0)  -->
<svg version="1.1" id="Capa_1" xmlns="http://www.w3.org/2000/svg" xmlns:xlink="http://www.w3.org/1999/xlink" x="0px" y="0px"
	 viewBox="0 0 44.5 16.9" style="enable-background:new 0 0 44.5 16.9;" xml:space="preserve">
<style type="text/css">
	.st0{fill:#B3233F;}
	.st1{clip-path:url(#SVGID_2_);}
	.st2{clip-path:url(#SVGID_4_);}
	.st3{clip-path:url(#SVGID_6_);fill:none;stroke:#CC6506;stroke-width:0.1289;}
	.st4{clip-path:url(#SVGID_12_);}
	.st5{clip-path:url(#SVGID_14_);fill:none;stroke:#FFFFFF;stroke-width:0.3223;stroke-miterlimit:10;}
	.st6{clip-path:url(#SVGID_16_);fill:none;stroke:#000000;stroke-width:6.446991e-02;stroke-miterlimit:10;}
</style>
<path class="st0" d="M14.4,5l-0.9-4.2L12.6,5L9.9,3.2L8.6,4l1-0.2l1.5,2.8h0.8h0.3l0,0l0,0l0,0h3.4l1.5-2.8l1.1,0.3l-1.1-0.8L14.4,5
	z M13.5,2.2l0.7,3l-1.5,0.9L13.5,2.2z M12.3,6.4h-0.9L9.8,3.6H9.7l0.2-0.1l2.7,1.8l-0.2,1L12.3,6.4z M17.2,3.6l-1.6,2.8h-2.9
	L17.2,3.6L17.2,3.6L17.2,3.6z"/>
<path class="st0" d="M13.5,0.8c0.2,0,0.3-0.1,0.3-0.2s-0.2-0.2-0.3-0.3c-0.2,0-0.3,0.1-0.3,0.2C13.1,0.6,13.3,0.8,13.5,0.8"/>
<path class="st0" d="M19,4.1c-0.2,0-0.3,0.1-0.3,0.2s0.2,0.2,0.3,0.3c0.2,0,0.3-0.1,0.3-0.2C19.3,4.2,19.2,4.1,19,4.1"/>
<path class="st0" d="M7.9,3.9C7.7,3.9,7.6,4,7.6,4.1c0,0.1,0.2,0.2,0.3,0.3C8,4.5,8.1,4.3,8.1,4.2C8.2,4,8.1,3.9,7.9,3.9"/>
<path class="st0" d="M9.4,7.1H7.9l0,0H7.2v1.2h0.9v2.5c0,0.4-0.1,0.8-0.9,0.8c-0.2,0-0.3,0-0.5-0.1v1.1c0.3,0,0.5,0.1,0.9,0.1
	c1.9,0,2.1-1,2.1-2V8.3l0,0L9.4,7.1L9.4,7.1L9.4,7.1z"/>
<path class="st0" d="M13.7,7c-1.9,0-3.4,1.2-3.4,2.9s1.5,2.9,3.4,2.9c2,0,3.4-1.2,3.4-2.9C17.1,8.3,15.6,7,13.7,7 M13.7,11.6
	c-1.1,0-2.1-0.8-2.1-1.8s0.9-1.8,2.1-1.8s2.1,0.9,2.1,1.8C15.7,10.8,14.8,11.6,13.7,11.6"/>
<polygon class="st0" points="23.5,7.1 21.7,7.1 19.5,9.6 19.5,7.1 18,7.1 18,12.6 19.5,12.6 19.5,10.2 21.8,12.6 23.5,12.6 
	20.7,9.8 "/>
<polygon class="st0" points="25.6,10.3 28.3,10.4 28.3,9.3 25.6,9.3 25.6,8.3 28.5,8.3 28.5,7.1 24.3,7.1 24.3,12.6 28.6,12.7 
	28.6,11.6 25.6,11.6 "/>
<path class="st0" d="M34.8,12.7l-1.5-2.1c0.7-0.3,1.2-0.9,1.2-1.7c0-1.1-0.9-1.8-2.2-1.8h-2.6l0,0v0.9l1.3,1.7h-1.4v3h1.4v-1.9h0.9
	l1.5,1.8L34.8,12.7z M33,9.1c0,0.3-0.2,0.6-0.4,0.7l-1.1-1.4h0.9C32.7,8.3,33,8.6,33,9.1"/>
<g>
	<g>
		<g>
			<g>
				<defs>
					<rect id="SVGID_1_" x="-12.7" y="-30.2" width="69" height="26.1"/>
				</defs>
				<clipPath id="SVGID_2_">
					<use xlink:href="#SVGID_1_"  style="overflow:visible;"/>
				</clipPath>
				<g class="st1">
					<g>
						<g>
							<defs>
								<rect id="SVGID_3_" x="-13.4" y="-28.7" width="65.1" height="23.2"/>
							</defs>
							<clipPath id="SVGID_4_">
								<use xlink:href="#SVGID_3_"  style="overflow:visible;"/>
							</clipPath>
							<g class="st2">
								<g>
									<g>
										<g>
											<defs>
												<rect id="SVGID_5_" x="-64.8" y="-130.5" width="322.1" height="232.2"/>
											</defs>
											<clipPath id="SVGID_6_">
												<use xlink:href="#SVGID_5_"  style="overflow:visible;"/>
											</clipPath>
											<rect x="-46.3" y="-79" class="st3" width="131.5" height="131.5"/>
										</g>
									</g>
									<g>
										<g>
											<defs>
												<rect id="SVGID_7_" x="-64.8" y="-130.5" width="322.1" height="232.2"/>
											</defs>
											<clipPath id="SVGID_8_">
												<use xlink:href="#SVGID_7_"  style="overflow:visible;"/>
											</clipPath>
										</g>
									</g>
									<g>
										<g>
											<defs>
												<rect id="SVGID_9_" x="-64.8" y="-130.5" width="322.1" height="232.2"/>
											</defs>
											<clipPath id="SVGID_10_">
												<use xlink:href="#SVGID_9_"  style="overflow:visible;"/>
											</clipPath>
										</g>
									</g>
									<g>
										<g>
											<defs>
												<rect id="SVGID_11_" x="-64.8" y="-130.5" width="322.1" height="232.2"/>
											</defs>
											<clipPath id="SVGID_12_">
												<use xlink:href="#SVGID_11_"  style="overflow:visible;"/>
											</clipPath>
											<g class="st4">
												<g>
													<g>
														<defs>
															<rect id="SVGID_13_" x="-64.8" y="-130.5" width="322.1" height="232.2"/>
														</defs>
														<clipPath id="SVGID_14_">
															<use xlink:href="#SVGID_13_"  style="overflow:visible;"/>
														</clipPath>
														<path class="st5" d="M249.7,97.8v3.9 M249.7-126.6v-3.9 M-57.3,97.8v3.9 M-57.3-126.6v-3.9 M253.4,94.2h3.9 M-61,94.2
															h-3.9 M253.4-122.9h3.9 M-61-122.9h-3.9"/>
													</g>
												</g>
												<g>
													<g>
														<defs>
															<rect id="SVGID_15_" x="-64.8" y="-130.5" width="322.1" height="232.2"/>
														</defs>
														<clipPath id="SVGID_16_">
															<use xlink:href="#SVGID_15_"  style="overflow:visible;"/>
														</clipPath>
														<path class="st6" d="M249.7,97.8v3.9 M249.7-126.6v-3.9 M-57.3,97.8v3.9 M-57.3-126.6v-3.9 M253.4,94.2h3.9 M-61,94.2
															h-3.9 M253.4-122.9h3.9 M-61-122.9h-3.9"/>
													</g>
												</g>
											</g>
										</g>
									</g>
									<g>
										<g>
											<defs>
												<rect id="SVGID_17_" x="-64.8" y="-130.5" width="322.1" height="232.2"/>
											</defs>
											<clipPath id="SVGID_18_">
												<use xlink:href="#SVGID_17_"  style="overflow:visible;"/>
											</clipPath>
										</g>
									</g>
									<g>
										<g>
											<defs>
												<rect id="SVGID_19_" x="-64.8" y="-130.5" width="322.1" height="232.2"/>
											</defs>
											<clipPath id="SVGID_20_">
												<use xlink:href="#SVGID_19_"  style="overflow:visible;"/>
											</clipPath>
										</g>
									</g>
								</g>
							</g>
						</g>
					</g>
				</g>
			</g>
		</g>
	</g>
</g>
</svg>
